<?xml version="1.0" encoding="utf-8"?>
<!-- Generator: Adobe Illustrator 18.1.1, SVG Export Plug-In . SVG Version: 6.00 Build 0)  -->
<!DOCTYPE svg PUBLIC "-//W3C//DTD SVG 1.1//EN" "http://www.w3.org/Graphics/SVG/1.1/DTD/svg11.dtd">
<svg version="1.1" id="Layer_1" xmlns="http://www.w3.org/2000/svg" xmlns:xlink="http://www.w3.org/1999/xlink" x="0px" y="0px"
	 width="1000px" height="665px" viewBox="0 0 1000 665" enable-background="new 0 0 1000 665" xml:space="preserve">
<g>
	<g>
		<path d="M533.8,208.5c-11.1-24.5-27-47-47.4-66.9c-24-23.2-52.6-41.1-85.1-53.2c-32-11.9-67.6-18-105.8-18
			c-43.8,0-85.2,9.6-122.8,28.5c-37.8,19-68.5,45.1-91.1,77.7c-23.1,33.3-34.8,69.7-34.8,108.3c0,29.1,6.8,57.4,20.3,84
			c13.2,26.2,31.9,49.5,55.5,69.1c23.3,19.4,50.5,34.6,81,45.1c30.2,10.5,62.8,15.8,96.9,15.8c44.8,0,86.7-9.4,124.6-28
			c38.2-18.7,68.9-44.6,91.4-76.9c22.8-32.9,34.4-69.4,34.4-108.6C550.8,259.3,545.1,233.4,533.8,208.5z M400.9,389.8
			c-9.6,29-23.3,51.4-40.9,66.7c-17.4,15.2-37.5,22.6-61.3,22.6c-17.3,0-33.1-4.3-47.1-12.8c-14.1-8.6-26.4-21.3-36.6-37.8
			c-10.6-17-18.8-37.7-24.4-61.5c-5.8-24.2-8.7-51.5-8.7-81.3c0-23.8,1.9-46.2,5.5-66.7c3.6-20.2,9-38.7,16.1-55
			c7-16.1,15.5-30.1,25.3-41.7c8.5-10.1,19.2-18,31.7-23.6c12.8-5.7,26.8-8.5,41.4-8.5c7.8,0,16.1,1.5,24.7,4.5
			c8.6,3,16.3,7,22.7,11.8l0.3,0.2c13.6,9.6,25.4,22.7,35,39.2c9.9,16.9,17.6,37.1,23,60c5.4,23.3,8.2,48.8,8.2,75.7
			C415.8,323.5,410.8,359.8,400.9,389.8z"/>
	</g>
	<g>
		<path fill="#FFFFFF" d="M513.2,205.6c-11.1-24.5-27-47-47.4-66.9c-24-23.2-52.6-41.1-85.1-53.2c-32-11.9-67.6-18-105.8-18
			c-43.8,0-85.2,9.6-122.8,28.5c-37.8,19-68.5,45.1-91.1,77.7C37.9,206.9,26.2,243.4,26.2,282c0,29.1,6.8,57.4,20.3,84
			c13.2,26.2,31.9,49.5,55.5,69.1c23.3,19.4,50.5,34.6,81,45.1c30.2,10.5,62.8,15.8,96.9,15.8c44.8,0,86.7-9.4,124.6-28
			c38.2-18.7,68.9-44.6,91.4-76.9c22.8-32.9,34.4-69.4,34.4-108.6C530.2,256.4,524.5,230.5,513.2,205.6z M380.3,386.9
			c-9.6,29-23.3,51.4-40.9,66.7c-17.4,15.2-37.5,22.6-61.3,22.6c-17.3,0-33.1-4.3-47.1-12.8c-14.1-8.6-26.4-21.3-36.7-37.8
			c-10.6-17-18.8-37.7-24.4-61.5c-5.8-24.2-8.7-51.6-8.7-81.3c0-23.8,1.9-46.2,5.5-66.7c3.6-20.2,9-38.7,16.1-55
			c7-16.1,15.5-30.1,25.3-41.7c8.5-10.1,19.2-18,31.7-23.6c12.8-5.7,26.8-8.5,41.4-8.5c7.8,0,16.1,1.5,24.7,4.5
			c8.6,3,16.3,7,22.7,11.8l0.3,0.2c13.6,9.6,25.4,22.7,35,39.2c9.9,16.9,17.7,37.1,23,60c5.4,23.3,8.2,48.8,8.2,75.7
			C395.2,320.6,390.1,356.9,380.3,386.9z"/>
		<g>
			<path d="M517,205.3c-20.1-43.9-54.4-80.3-96.1-104.5C377.3,75.7,327.3,64.6,277.3,64C182,63,83,111.5,40.6,200
				c-21.1,44.1-24.2,95.1-8.4,141.4c15.4,45.3,47.4,83.6,86.7,110.4c82.7,56.4,198.2,63.5,287.9,19.6c40.4-19.8,75.8-49.6,99.4-88.2
				c25.7-42.1,34.6-93.5,23.2-141.6C526.4,229.1,522.2,217,517,205.3c-1.6-3.7-9.7-4.3-7.5,0.6c20,44.7,22.2,95.4,4.8,141.3
				c-15.7,41.5-46.3,76.4-83,100.8c-80.4,53.5-189.9,58.8-276.5,17.2c-41.5-19.9-77.6-51.4-100.3-91.6
				c-23.7-41.9-30.5-91.8-17.9-138.3C61.1,144.8,150.7,84.5,240.5,73.2c94.7-11.9,197.3,21.2,252.1,102.6c6.4,9.6,12,19.6,16.8,30.1
				C511.1,209.6,519.2,210.2,517,205.3z"/>
			<path d="M376.3,385.4c-9.3,27.8-24.2,55.1-48.8,72.1c-25.5,17.6-61.2,20.4-89,6.5c-27.7-13.9-45-41.9-55.7-70
				c-11.7-30.9-16.4-64.2-17.4-97.2c-1.1-34.2,1.5-69.1,10.4-102.3c7.9-29.5,21.6-62,45.5-82.2c25.6-21.8,64.1-28.2,94.4-13
				c27.3,13.7,45.4,41,56.5,68.6c12.6,31.3,17.8,65.3,18.8,98.8c1,32.8-1.4,66.3-9,98.3C380.4,372,378.4,378.7,376.3,385.4
				c-1.2,3.8,6.5,7.3,8,2.9c10.5-32,14.2-65.8,14.8-99.3c0.7-36.4-3-73.2-14.4-107.9c-10.2-31.3-27.2-60.3-54.1-79.8
				c-28.1-20.4-65-22.3-96-7.3c-29.7,14.4-47.7,44.2-59.1,74c-12.8,33.3-17.4,69.2-18.2,104.6c-0.8,36.1,2.5,72.6,13.1,107.3
				c9.3,30.6,25,61.1,51,80.7c25.7,19.3,61,24.4,91.3,13.5c29-10.4,49.7-35.4,62.4-62.6c3.5-7.5,6.5-15.3,9.1-23.2
				C385.5,384.6,377.7,381.1,376.3,385.4z"/>
		</g>
	</g>
	<path d="M170.3,63.9c6.8-2,8.3-8.5,6.5-15.6c-2.5-9.7-13-14-15-20.7c-1.9-6.6,3.2-10.9,7.8-12.1c4.9-1.3,8.4,0.7,9.3,4.4
		c0.9,3.8-1.2,6.4-4.2,7.2c-1.3,0.3-2.8,0.1-3.1-1.1c-0.2-0.8,0.2-1.5,1.1-1.7c1.4-0.4,1.9,1.3,3,1c1.3-0.3,2.7-2.1,2-5
		c-0.8-3.1-3.7-4.1-7.3-3.2c-3.9,1-6.3,3.9-5.1,8.1c1.9,6.6,14.3,10.6,16.8,20.6c2.6,10.3-2.6,17.3-10.9,19.8
		c-6.8,2-14.3,0.2-16.5-6.4c-1.8-5.5,0.6-10.9,6.1-12.6c2.8-0.8,5.1-0.3,6.5,0.8c1.2,0.9,1.9,2.1,2.2,3c0.1,0.3,0,0.5-0.1,0.5
		c-0.2,0.1-0.4,0-0.4-0.3c-0.2-0.9-2.4-2.6-5.1-1.8c-3.5,1-5.9,5.1-4.4,10C160.7,62.7,165.5,65.3,170.3,63.9z"/>
	<path d="M185.1,42.9c-1.1-4.6-0.5-13,1.9-20.7c2.2-6.9,5.9-10.2,9-10.8c1.9-0.4,3.4,0.5,3.7,2c1,5.2-4.9,16.9-10,24.2
		c0,0-0.2,1.7,0.3,3.6c0.7,3.1,2.6,4.2,5,3.7c3-0.7,5.2-4,6.6-7.6c0,0,0.1-0.4,0.3-0.4c0.2,0,0.4,0.1,0.4,0.2c0,0.2-0.1,0.5-0.1,0.5
		c-1.7,4.1-4.6,9.9-9.1,11C190.2,49.4,186.3,47.8,185.1,42.9z M191.7,23.1c-1.8,6.2-1.9,13.3-1.9,13.3c3.8-5.8,9.7-17.5,8.9-21.7
		c-0.2-0.9-0.7-1.1-1.6-1C195.9,14,193.5,16.7,191.7,23.1z"/>
	<path d="M209.9,45.2c-4.1,0.8-7.5-1.1-8.4-5.3c-1.2-5.7,3.1-11.1,8.6-12.1c3.2-0.6,4.7,0.4,5.7,1.9c1.4-0.1,2.5,1.1,2.7,2.5
		c0.3,1.8-0.6,4.3-0.9,5c0.6,0.1,1.2,0.2,2,0c1.8-0.3,3.2-1.7,4.3-4c0,0,0.2-0.3,0.4-0.4c0.2,0,0.4,0.1,0.4,0.3
		c0,0.2-0.1,0.5-0.1,0.5c-1.3,2.8-3,4-5,4.3c-0.8,0.1-1.5,0.1-2.4,0C216.3,41.1,213.5,44.5,209.9,45.2z M211.6,28.7
		c-3.3,0.6-5.4,5.4-4.5,9.8c0.6,3.3,2.8,4.4,5.2,4c1.9-0.3,3.4-2.2,4.2-4.5c-1.1-0.3-3.4-1.3-3.8-3.6c-0.4-2.2,1.1-3.8,2.1-4.2
		C214.4,29,213.1,28.4,211.6,28.7z"/>
	<path d="M247.8,21.8c-0.1-0.5,0.9-1.6,1.9-1.7c1-0.1,1.8,1,2,2.7c0.5,6.3-3.4,16.7-10.2,17.5c-2,0.2-4.6-0.3-5.1-3.9
		c-0.2-1.6,0.2-3.8,0.2-3.8c-2.2,4.1-5.3,9-9,9.6c-3,0.4-5-0.6-5.5-3.4c-0.5-2.8,3.2-7.8,2.8-10.7c-0.2-1.3-0.6-1.6-0.6-2
		c0-0.3,0.1-0.5,0.5-0.6c0.3-0.1,1,0.2,1.4,0.4c1.3,0.6,2.5,1.2,2.8,3.1c0.3,2.1-1.3,6.9-1,9c0.1,1,0.9,1.5,1.8,1.3
		c2-0.3,4.4-3.2,6.2-6.7c1-2,1.6-4.8,1.8-6.5c0.2-1.2,0.1-1.7,0.9-1.8c1.6-0.2,3.5,1,3.7,2.6c0.2,1.5-1.1,4-0.5,9
		c0.2,1.5,1.2,2.1,2.5,1.9c3.2-0.4,6.2-6.8,5.7-11.7C249.7,22.9,247.9,22.5,247.8,21.8z"/>
	<path d="M281.2,46.4c7.1-0.2,10.1-6.1,10.1-13.4c0-10-9-16.9-9.2-23.9c-0.2-6.8,5.7-9.7,10.5-9.7c5,0,7.9,2.8,7.9,6.6
		c-0.1,3.9-2.8,5.9-5.8,5.9c-1.3,0-2.7-0.6-2.7-1.8c0-0.8,0.6-1.4,1.5-1.4c1.5,0,1.5,1.7,2.6,1.7c1.3,0,3.1-1.4,3.2-4.3
		c0-3.2-2.5-4.9-6.2-4.9c-4,0-7,2.2-6.9,6.5c0.2,6.9,11.1,13.8,11,24.1c-0.1,10.6-6.8,16.1-15.4,16.4c-7,0.2-13.8-3.4-14.2-10.3
		c-0.4-5.7,3.3-10.4,9-10.6c2.9-0.1,4.9,1,6,2.4c0.9,1.1,1.3,2.6,1.3,3.5c0,0.3-0.1,0.4-0.3,0.4c-0.2,0-0.3-0.1-0.3-0.4
		c0-0.9-1.7-3.1-4.5-3c-3.6,0.1-6.9,3.5-6.7,8.6C272.3,42.8,276.3,46.6,281.2,46.4z"/>
	<path d="M339.7,30.2c0,0,0.2-0.3,0.4-0.3c0.2,0,0.3,0.2,0.3,0.3c0,0.2-0.3,0.5-0.3,0.5c-2.9,3.4-7.3,8.1-11.6,7.8
		c-3-0.2-4.9-1.9-4.8-4.3c0.3-4.6,4.4-7.3,4.5-9.3c0.1-0.8-0.2-1.7-1.4-1.8c-1.2-0.1-4.8,1.7-7.9,5.7c-1.9,2.4-2.7,5.7-2.8,7.8
		c0,0.7-0.7,1-1.6,0.9c-0.7,0-3.5-0.7-3.4-2.8c0.2-4.9,4.1-8.3,4.3-11c0-0.9-0.5-1.5-1.4-1.5c-1.9-0.1-5.8,2.8-8.1,6.7
		c-1.5,2.4-2.5,5.3-2.6,7.1c0,0.7-0.7,1.2-1.3,1.2c-1.6,0-3.5-0.9-3.5-2.8c0-4.5,4-8.4,4.1-12.9c0-1.5-0.3-1.4-0.3-1.8
		c0-0.3,0.1-0.5,0.5-0.5c1.4,0,3.7,2.3,3.7,3.8c-0.1,2.3-1.2,5.4-1.2,5.4c2.6-4.2,7-8,10.7-7.9c2.6,0.1,3.6,1.5,3.5,3.5
		c-0.1,1.2-0.6,2.6-1,3.9c3.2-4.2,7.9-6.8,11.1-6.5c2.5,0.2,3.4,1.6,3.3,3.3c-0.2,2.7-2.8,5-3.1,8.9c-0.1,1.2,0.7,2,1.9,2.1
		C334.3,36.1,337.3,33.1,339.7,30.2z"/>
	<path d="M345.2,40.1c-4.1-0.5-6.8-3.3-6.4-7.5c0.5-5.8,6.2-9.7,11.8-9c3.2,0.4,4.4,1.8,4.9,3.5c1.4,0.4,2,1.8,1.8,3.2
		c-0.3,1.8-1.8,3.9-2.3,4.5c0.6,0.3,1.1,0.5,1.9,0.6c1.8,0.2,3.6-0.6,5.3-2.5c0,0,0.2-0.3,0.4-0.3c0.2,0,0.3,0.2,0.3,0.4
		c0,0.2-0.3,0.5-0.3,0.5c-2.1,2.2-4,2.9-6.1,2.6c-0.8-0.1-1.4-0.3-2.3-0.7C352.4,38.2,348.8,40.6,345.2,40.1z M351.7,24.9
		c-3.3-0.4-6.7,3.6-7.2,8c-0.4,3.3,1.4,5.1,3.8,5.3c1.9,0.2,3.9-1.1,5.3-3.1c-1-0.6-2.8-2.3-2.5-4.6c0.3-2.3,2.2-3.3,3.3-3.4
		C354.2,26.1,353.2,25.1,351.7,24.9z"/>
	<path d="M387.5,37.5c0,0,0.3-0.3,0.5-0.2c0.2,0,0.3,0.2,0.3,0.4c0,0.2-0.3,0.5-0.3,0.5c-3.2,3.1-7.9,7.4-12.1,6.6
		c-4.3-0.8-7.3-5.3-6.9-7.6c0.1-0.4,0.4-1,1.6-1.1c4.2-0.8,6.7-3.1,7-4.9c0.2-0.9-0.5-1.6-1.5-1.7c-1.7-0.3-6,1.7-8.2,4.7
		c-1.4,1.9-1.8,4.6-2,6c-0.2,1.3-1.6,2.8-3.5,2.5c-1.9-0.3-1.9-1.6-1.5-4.1c0.7-4.9,3.9-14.5,10.4-22c4.7-5.4,9.3-7.2,12.4-6.6
		c2,0.4,3,1.7,2.7,3.3c-1,5.2-9.4,11.1-16.6,15.3c0,0-1.4,2.8-1.9,4.8c2.2-2.9,7.6-5.7,11.4-5c2.8,0.5,3.6,2.1,3.3,4
		c-0.7,3.5-6,5.1-10.1,5.2c1.1,1.7,2.9,3.7,6.3,4.3C382,42.2,384.8,40.2,387.5,37.5z M375.3,18.8c-3.9,5-5.3,8.4-5.3,8.4
		c6.2-3.5,13.9-9.6,14.6-13.3c0.2-0.9-0.3-1.4-1.1-1.6C382.5,12.1,379.5,13.3,375.3,18.8z"/>
	<path d="M406.1,41.8c0,0,0.3-0.3,0.5-0.2c0.2,0,0.3,0.2,0.3,0.4c0,0.2-0.3,0.4-0.3,0.4c-3.3,2.9-8.7,6.9-14.4,5.6
		c-4.1-0.9-7-3.8-6.2-7.9c0.7-3.4,3.5-6.3,6.5-7.5c2.2-0.9,4.6-1,6.4-0.6c2.6,0.6,3.7,2.1,3.3,3.8c-0.8,3.2-7,4.7-10.3,5
		c-0.6,2.8,1,4.6,3.9,5.2C399.3,47,403.3,44.4,406.1,41.8z M400.6,36c0.2-1-0.2-1.6-1.2-1.9c-2.1-0.5-6.4,1.9-7.3,6
		C394.7,39.9,399.9,38.6,400.6,36z"/>
	<path d="M428.6,53.4c0.4-0.2,0.7-0.3,0.9-0.2c0.2,0.1,0.3,0.2,0.2,0.4c-0.1,0.2-0.3,0.4-0.9,0.7c-1.8,1.2-4.1,2.4-6.9,1.6
		c-2.6-0.8-3.6-3.5-3.6-6.4c-2.7,1.7-6.3,3.6-9.7,2.7c-2.8-0.7-5.1-3.3-4-7.8c0.9-3.7,3.5-6.2,6.4-7.3c2.3-0.9,4.7-0.7,6.4-0.2
		c2.4,0.7,3.2,1.7,3.6,2.3c0.4-0.7,2.6-5.7,6.8-9.8c5.8-5.6,9.8-6.1,12.7-5.2c2.2,0.7,3.2,2.4,2.5,4.6c-1.7,5-12.4,12.8-19.6,17.9
		c-0.8,3.6-0.5,6.7,1.6,7.4C426.4,54.2,427.5,53.9,428.6,53.4z M418.4,48.5c0.1-1.3,0.4-2.8,0.7-3.8c0.6-2,1.6-4.6,1.7-4.8
		c-0.4-0.7-1.3-1.2-2.3-1.5c-3.3-0.9-7.1,2.3-8.3,6.9c-0.6,2.3,0.4,4.5,2.3,5C414.2,50.7,415.5,50.4,418.4,48.5z M441.6,28.6
		c0.3-0.9,0.1-1.6-1-1.9c-1.4-0.5-3.9,0.2-8.5,5.2c-4,4.3-7.4,11.1-8.2,13.5C430,40.9,439.9,33.9,441.6,28.6z"/>
	<path d="M173.8,434.9c-13-18.6-22.9-40.7-29.8-66.4c-6.9-25.7-10.3-54.2-10.3-85.4c0-25,2.2-48.3,6.5-69.9
		c4.4-21.6,10.8-41.2,19.5-58.8c8.6-17.6,19-32.7,31.2-45.5c7.2-7.7,15.6-14.2,25-19.5c-16.2,4.5-31.9,10.7-46.8,18.8
		c-33.2,17.9-60,42.6-79.8,73.3c-20,31-30.1,65-30.1,100.9c0,27.1,5.9,53.4,17.5,78.2c11.5,24.6,27.8,46.4,48.3,64.9
		c20.4,18.3,44.3,32.7,71,42.6c6.1,2.3,12.4,4.3,18.8,6.1C199,464.6,185.4,451.5,173.8,434.9z"/>
	<path d="M444.8,148.5c-21-21.9-46-38.8-74.4-50.2c-8.7-3.5-17.7-6.4-26.9-8.9c0.8,0.5,1.6,1,2.3,1.5c17.2,10.8,31.9,25.3,44.1,43.7
		c12.1,18.4,21.5,39.9,28,64.7c6.5,24.8,9.7,51.4,9.7,79.8c0,43.9-5.9,81.7-17.8,113.6c-11.9,31.9-28.9,56.4-51.1,73.5
		c-3.7,2.9-7.6,5.5-11.5,7.9c15.2-4.3,29.9-10.2,43.9-17.6c33.4-17.7,60.3-42,79.9-72.4c19.7-30.7,29.8-64.7,29.8-101.2
		c0-24.3-4.9-48.4-14.7-71.6C476.4,188.3,462.5,167.2,444.8,148.5z"/>
	<g>
		<path fill="#FFFFFF" d="M186.3,450.6c-0.3-0.3-0.5-0.6-0.8-0.8c-5.7,2-11.4,4-17.1,6c0.4,0.2,0.9,0.4,1.3,0.7
			C175.2,454.4,180.7,452.5,186.3,450.6z"/>
		<path fill="#FFFFFF" d="M155.9,402.9c-0.2-0.4-0.4-0.9-0.6-1.3c-13.5,4.7-27.1,9.4-40.6,14.1c0.4,0.4,0.7,0.7,1.1,1.1
			C129.2,412.2,142.6,407.5,155.9,402.9z"/>
		<path fill="#FFFFFF" d="M160.1,411.8c-0.2-0.4-0.4-0.8-0.6-1.2c-12.2,4.3-24.4,8.7-36.6,13c0.4,0.3,0.7,0.7,1.1,1
			C136.1,420.4,148.1,416.1,160.1,411.8z"/>
		<path fill="#FFFFFF" d="M486.5,354.8c0.2-0.4,0.3-0.8,0.5-1.2c-24.2,8.5-48.4,17-72.7,25.6c-0.1,0.4-0.2,0.8-0.3,1.2
			C438.2,371.8,462.3,363.3,486.5,354.8z"/>
		<path fill="#FFFFFF" d="M385.4,128.2c8.4-2.9,16.7-5.8,25.1-8.7c-0.8-0.6-1.7-1.1-2.5-1.7c-8,2.8-16,5.6-24.1,8.3
			C384.4,126.9,384.9,127.5,385.4,128.2z"/>
		<path fill="#FFFFFF" d="M64.8,236.8c-0.2,0.9-0.5,1.8-0.7,2.8c14.3-5,28.5-9.9,42.7-14.8c11.1-3.9,22.3-7.7,33.4-11.6c0,0,0,0,0,0
			c0.2-0.9,0.4-1.8,0.6-2.7c-11.6,4-23.1,8-34.8,12C92.3,227.3,78.6,232,64.8,236.8z"/>
		<path fill="#FFFFFF" d="M136.7,234.3c0.1-0.9,0.2-1.7,0.3-2.6c-25.4,8.8-50.9,17.7-76.4,26.6c-0.1,0.9-0.2,1.7-0.3,2.6
			C85.8,252,111.3,243.2,136.7,234.3z"/>
		<path fill="#FFFFFF" d="M424.9,326.9c-0.1,0.5-0.1,1-0.2,1.4c25-8.7,50-17.4,75-26.1c0-0.5,0.1-0.9,0.1-1.4
			C474.9,309.6,449.9,318.2,424.9,326.9z"/>
		<path fill="#FFFFFF" d="M426,316c0,0.5-0.1,1-0.1,1.5c24.9-8.8,49.8-17.6,74.7-26.5c0-0.5,0-1,0.1-1.4
			C475.8,298.4,450.9,307.2,426,316z"/>
		<path fill="#FFFFFF" d="M138.2,341.6c-0.1-0.6-0.2-1.2-0.3-1.8c-20.3,7.2-40.6,14.4-61,21.5c0.3,0.5,0.5,1.1,0.8,1.6
			C97.9,355.8,118,348.7,138.2,341.6z"/>
		<path fill="#FFFFFF" d="M97.4,345.2c13.1-4.6,26.2-9.1,39.4-13.7c-0.1-0.6-0.2-1.2-0.2-1.9c-13.2,4.6-26.5,9.2-39.7,13.8
			c-8,2.8-16,5.6-24,8.4c0.2,0.6,0.5,1.1,0.7,1.7C81.4,350.7,89.4,348,97.4,345.2z"/>
		<path fill="#FFFFFF" d="M59.4,272.3c25.3-9,50.7-17.9,76.1-26.9c0.1-0.8,0.2-1.7,0.3-2.5c-25.4,9-50.8,18-76.2,27
			C59.5,270.7,59.4,271.5,59.4,272.3z"/>
		<path fill="#FFFFFF" d="M172.5,132c-20.7,7.3-41.3,14.5-62,21.7c-1.1,1.2-2.2,2.4-3.2,3.7c21-7.4,42-14.7,63-22.1
			C171,134.2,171.8,133.1,172.5,132z"/>
		<path fill="#FFFFFF" d="M433.3,137.4c-11.5,4.1-23,8.2-34.6,12.2c0.4,0.7,0.7,1.4,1.1,2c11.8-4.2,23.6-8.4,35.4-12.5
			C434.6,138.5,434,137.9,433.3,137.4z"/>
		<path fill="#FFFFFF" d="M403.2,158.4c0.3,0.7,0.6,1.4,1,2c13-4.5,26.1-9,39.1-13.6c-0.6-0.6-1.2-1.2-1.7-1.8
			C428.7,149.5,416,154,403.2,158.4z"/>
		<path fill="#FFFFFF" d="M389.9,134.6c0.2,0.3,0.4,0.7,0.6,1c9.5-3.3,19-6.7,28.5-10c-0.8-0.6-1.5-1.1-2.3-1.7
			c-9.2,3.2-18.3,6.5-27.5,9.7C389.4,133.9,389.6,134.3,389.9,134.6z"/>
		<path fill="#FFFFFF" d="M61.7,251.5c25.4-8.9,50.9-17.8,76.5-26.8c0.1-0.9,0.3-1.8,0.4-2.7c-25.5,9-51,17.9-76.4,26.8
			C62,249.7,61.8,250.6,61.7,251.5z"/>
		<path fill="#FFFFFF" d="M152.6,394.8c-0.2-0.5-0.4-0.9-0.5-1.4c-14.6,5.1-29.1,10.3-43.7,15.4c0.4,0.4,0.7,0.8,1.1,1.2
			C123.9,405,138.2,399.9,152.6,394.8z"/>
		<path fill="#FFFFFF" d="M501,282.9c0-0.5-0.1-0.9-0.1-1.4c-24.7,8.6-49.4,17.2-74.1,25.8c0,0.5,0,1,0,1.5
			C451.4,300.2,476,291.6,501,282.9C501,283,501,283,501,282.9z"/>
		<path fill="#FFFFFF" d="M377.4,118.2c0.6,0.7,1.1,1.3,1.7,2c6.9-2.4,13.8-4.9,20.8-7.3c-0.9-0.5-1.8-1.1-2.8-1.6
			C390.5,113.5,384,115.8,377.4,118.2z"/>
		<path fill="#FFFFFF" d="M370.8,111c0.6,0.6,1.3,1.3,1.9,1.9c5.6-2,11.3-3.9,16.9-5.9c-1-0.5-2-1-3-1.6
			C381.3,107.4,376.1,109.2,370.8,111z"/>
		<path fill="#FFFFFF" d="M474.5,378.5c0.2-0.4,0.5-0.8,0.7-1.2c-23,8.1-45.9,16.2-68.9,24.3c-0.2,0.4-0.3,0.7-0.5,1.1
			C428.7,394.6,451.6,386.6,474.5,378.5z"/>
		<path fill="#FFFFFF" d="M384.8,439.6c19-6.6,38.1-13.2,57.2-19.9c0.4-0.4,0.8-0.8,1.2-1.2c-19.2,6.7-38.4,13.4-57.6,20
			C385.3,438.9,385.1,439.3,384.8,439.6z"/>
		<path fill="#FFFFFF" d="M424.4,435.1c0.5-0.4,1.1-0.8,1.6-1.3c-17.2,6-34.4,12.1-51.6,18.2c-0.3,0.4-0.7,0.7-1,1
			C390.4,447,407.4,441.1,424.4,435.1z"/>
		<path fill="#FFFFFF" d="M465.2,392.6c0.3-0.4,0.6-0.8,0.8-1.2c-21.9,7.6-43.8,15.2-65.7,22.8c-0.2,0.4-0.3,0.7-0.5,1.1
			C421.6,407.7,443.4,400.2,465.2,392.6z"/>
		<path fill="#FFFFFF" d="M147.6,121.4c-2.2,1.6-4.5,3.1-6.6,4.8c0.9-0.3,1.9-0.7,2.8-1c15.8-5.6,31.7-11.1,47.5-16.7
			c1.2-1.3,2.5-2.5,3.8-3.8C179.2,110.2,163.4,115.8,147.6,121.4z"/>
		<path fill="#FFFFFF" d="M345.1,90.5c0.2,0.1,0.5,0.3,0.7,0.4c0.7,0.4,1.3,0.8,2,1.3c0.8-0.3,1.7-0.6,2.5-0.9
			c-1.4-0.4-2.8-0.8-4.1-1.2C345.8,90.3,345.4,90.4,345.1,90.5z"/>
		<path fill="#FFFFFF" d="M111.7,331.4c8-2.8,16-5.6,24-8.5c-0.1-0.6-0.1-1.3-0.2-2c-8.1,2.9-16.3,5.8-24.4,8.6
			c-13.8,4.8-27.5,9.7-41.3,14.5c0.2,0.6,0.4,1.2,0.6,1.8C84.2,341.1,98,336.2,111.7,331.4z"/>
		<path fill="#FFFFFF" d="M456.3,404.2c0.3-0.4,0.6-0.8,0.9-1.1c-20.9,7.4-41.9,14.8-62.8,22.2c-0.2,0.3-0.4,0.7-0.6,1
			C414.6,418.9,435.5,411.5,456.3,404.2z"/>
		<path fill="#FFFFFF" d="M355,97.2c0.8,0.6,1.6,1.2,2.4,1.8c2.6-0.9,5.2-1.8,7.8-2.7c-1.2-0.5-2.5-0.9-3.7-1.3
			C359.3,95.7,357.1,96.4,355,97.2z"/>
		<path fill="#FFFFFF" d="M76.2,205c-0.5,1-1,2.1-1.4,3.1c24.3-8.5,48.8-17.2,73.5-25.9c0.3-1,0.7-2,1-3
			C124.8,187.9,100.4,196.5,76.2,205z"/>
		<path fill="#FFFFFF" d="M73,214.5c-0.4,0.1-0.7,0.2-1.1,0.4c-0.4,1-0.8,2-1.2,3c1-0.4,2-0.7,3-1.1c24-8.3,47.8-16.6,71.5-24.8
			c0.3-1,0.5-1.9,0.8-2.9C121.9,197.5,97.5,206,73,214.5z"/>
		<path fill="#FFFFFF" d="M66.6,230.4c25.1-8.8,50.4-17.7,75.7-26.6c0.2-1,0.5-1.9,0.7-2.8c-25.3,8.9-50.4,17.8-75.5,26.6
			C67.1,228.5,66.9,229.5,66.6,230.4z"/>
		<path fill="#FFFFFF" d="M192.9,457.4c-4.1,1.5-8.2,2.9-12.3,4.4c0.4,0.2,0.9,0.4,1.3,0.6c3.9-1.4,7.9-2.8,11.8-4.2
			C193.4,457.9,193.2,457.6,192.9,457.4z"/>
		<path fill="#FFFFFF" d="M480.5,367.7c0.2-0.4,0.4-0.8,0.6-1.2c-23.6,8.2-47.2,16.4-70.7,24.5c-0.1,0.4-0.3,0.8-0.4,1.1
			C433.5,384,457,375.9,480.5,367.7z"/>
		<path fill="#FFFFFF" d="M89.6,180.8c-0.1,0.2-0.3,0.4-0.4,0.6c-0.6,0.9-1.2,1.8-1.7,2.7c23.2-8.2,46.5-16.4,69.7-24.6
			c0.5-1.1,1-2.1,1.5-3.1C135.7,164.6,112.6,172.7,89.6,180.8z"/>
		<path fill="#FFFFFF" d="M125.9,138.4c-1.5,1.3-2.9,2.7-4.3,4c19.3-6.7,38.6-13.5,57.9-20.2c0.9-1.1,1.7-2.3,2.6-3.4
			C163.4,125.4,144.6,131.9,125.9,138.4z"/>
		<path fill="#FFFFFF" d="M83.1,191.7c-0.6,1.1-1.2,2.2-1.8,3.3c23.8-8.3,47.7-16.6,71.5-24.9c0.4-1,0.8-2,1.2-3
			C130.3,175.2,106.7,183.5,83.1,191.7z"/>
		<path fill="#FFFFFF" d="M99.3,167.3c-0.9,1.2-1.8,2.3-2.6,3.5c22.2-7.7,44.4-15.5,66.5-23.2c0.6-1.1,1.2-2.1,1.8-3.2
			C143,152,121.2,159.6,99.3,167.3z"/>
		<path fill="#FFFFFF" d="M200.3,463.9c-2.7,0.9-5.3,1.8-8,2.8c0.4,0.2,0.9,0.3,1.4,0.5c2.5-0.9,5-1.7,7.5-2.6
			C200.8,464.4,200.5,464.1,200.3,463.9z"/>
		<path fill="#FFFFFF" d="M59.7,297.2c0.1,0.7,0.1,1.5,0.2,2.2c24.7-8.6,49.3-17.1,73.9-25.6c0-0.8,0.1-1.5,0.1-2.3
			C109.1,280.1,84.4,288.7,59.7,297.2z"/>
		<path fill="#FFFFFF" d="M407.6,168.5c14-4.9,28-9.9,42-14.8c-0.5-0.6-1-1.2-1.6-1.8c-13.8,4.8-27.5,9.7-41.2,14.5
			C407.1,167.2,407.3,167.8,407.6,168.5z"/>
		<path fill="#FFFFFF" d="M490.3,345c0.2-0.4,0.3-0.9,0.4-1.3c-24.5,8.5-49.1,17-73.6,25.6c-0.1,0.4-0.2,0.8-0.3,1.2
			C441.3,362.1,465.8,353.5,490.3,345z"/>
		<path fill="#FFFFFF" d="M423.7,336.6c-0.1,0.5-0.1,0.9-0.2,1.4c25.1-8.8,50.1-17.7,75.2-26.5c0.1-0.5,0.1-0.9,0.2-1.4
			C473.8,318.9,448.7,327.8,423.7,336.6z"/>
		<path fill="#FFFFFF" d="M421.6,349.1c25-8.7,49.9-17.4,74.9-26c0.1-0.4,0.2-0.9,0.3-1.3c-25,8.7-50,17.4-74.9,26
			C421.8,348.2,421.7,348.7,421.6,349.1z"/>
		<path fill="#FFFFFF" d="M395.8,144.3c10.8-3.8,21.7-7.5,32.5-11.3c-0.7-0.6-1.4-1.2-2.1-1.7c-10.5,3.7-21,7.3-31.6,11
			C395,142.9,395.4,143.6,395.8,144.3z"/>
		<path fill="#FFFFFF" d="M143.4,366.1c-17.8,6.2-35.6,12.4-53.4,18.5c0.3,0.5,0.6,0.9,0.9,1.4c17.6-6.1,35.3-12.2,52.9-18.4
			C143.6,367.2,143.5,366.7,143.4,366.1z"/>
		<path fill="#FFFFFF" d="M425.4,240.1c21.1-7.4,42.2-14.8,63.3-22.2c-0.2-0.6-0.4-1.1-0.6-1.7c-21,7.4-41.9,14.7-62.9,22.1
			C425.2,238.8,425.3,239.5,425.4,240.1z"/>
		<path fill="#FFFFFF" d="M496.4,243.6c-23,8-46,16-69,24c0,0.6,0,1.1,0.1,1.7c23.1-8,46.2-16,69.3-24.1
			C496.6,244.7,496.5,244.1,496.4,243.6z"/>
		<path fill="#FFFFFF" d="M498,251.7c-23.5,8.3-47,16.5-70.5,24.8c0,0.6,0,1.1,0,1.7c23.6-8.3,47.2-16.6,70.7-24.9
			C498.2,252.8,498.1,252.3,498,251.7z"/>
		<path fill="#FFFFFF" d="M365.1,105.6c4.1-1.4,8.2-2.9,12.2-4.3c-1.1-0.5-2.2-1-3.3-1.4c-3.7,1.3-7.3,2.6-11,3.9
			C363.7,104.3,364.4,104.9,365.1,105.6z"/>
		<path fill="#FFFFFF" d="M426.9,257.2c0,0.6,0.1,1.2,0.1,1.7c22.4-7.9,44.9-15.8,67.3-23.7c-0.1-0.5-0.3-1.1-0.4-1.6
			C471.5,241.5,449.2,249.3,426.9,257.2z"/>
		<path fill="#FFFFFF" d="M394,455c-12.6,4.4-25.2,8.8-37.8,13.2c-0.6,0.4-1.2,0.8-1.7,1.2c12.1-4.2,24.2-8.4,36.3-12.6
			c0.1-0.1,0.2-0.1,0.4-0.2C392.1,456.1,393.1,455.5,394,455z"/>
		<path fill="#FFFFFF" d="M212.3,91.4c1.1-0.7,2.3-1.4,3.5-2.1c-12.5,3.4-24.7,8-36.5,13.6C190.3,99.1,201.3,95.3,212.3,91.4z"/>
		<path fill="#FFFFFF" d="M206.9,471.9c0.5,0.1,0.9,0.3,1.4,0.4c0.7-0.3,1.5-0.5,2.2-0.8c-0.3-0.2-0.6-0.4-0.9-0.6
			C208.7,471.2,207.8,471.5,206.9,471.9z"/>
		<path fill="#FFFFFF" d="M179.4,442.5c-7.1,2.5-14.1,5-21.2,7.5c0.4,0.3,0.8,0.5,1.3,0.7c6.9-2.4,13.8-4.9,20.7-7.3
			C179.9,443.1,179.7,442.8,179.4,442.5z"/>
		<path fill="#FFFFFF" d="M139.2,437.1c0.4,0.3,0.8,0.6,1.2,0.9c9.6-3.4,19.2-6.8,28.8-10.2c-0.2-0.4-0.4-0.7-0.7-1.1
			C158.7,430.2,148.9,433.7,139.2,437.1z"/>
		<path fill="#FFFFFF" d="M129.6,429.5c0.4,0.3,0.8,0.6,1.1,1c11-3.8,22.1-7.7,33.1-11.5c-0.2-0.4-0.4-0.8-0.6-1.1
			C152.1,421.8,140.9,425.6,129.6,429.5z"/>
		<path fill="#FFFFFF" d="M173.8,434.9c-0.2-0.2-0.3-0.5-0.5-0.7c-8.6,3-17.2,6-25.8,8.9c0.4,0.3,0.8,0.5,1.2,0.8
			c8.4-2.9,16.8-5.8,25.2-8.8C173.9,435.1,173.8,435,173.8,434.9z"/>
		<path fill="#FFFFFF" d="M419.6,358.9c24.8-8.7,49.7-17.5,74.5-26.2c0.1-0.4,0.2-0.9,0.3-1.3c-24.9,8.7-49.7,17.4-74.6,26.2
			C419.8,358.1,419.7,358.5,419.6,358.9z"/>
		<path fill="#FFFFFF" d="M59.2,288.9c0,0.8,0.1,1.5,0.1,2.3c24.9-8.7,49.8-17.4,74.7-26.2c0-0.8,0.1-1.6,0.1-2.4
			C109.2,271.4,84.2,280.1,59.2,288.9z"/>
		<path fill="#FFFFFF" d="M471.3,182.8c-17.7,6.2-35.3,12.5-53,18.7c0.2,0.6,0.3,1.3,0.5,1.9c17.8-6.3,35.7-12.6,53.5-18.9
			C472,183.9,471.7,183.3,471.3,182.8z"/>
		<path fill="#FFFFFF" d="M134.6,310.5c-22.7,7.9-45.4,15.8-68,23.6c0.2,0.6,0.4,1.2,0.6,1.9c22.5-7.8,45.1-15.7,67.6-23.5
			C134.7,311.8,134.6,311.1,134.6,310.5z"/>
		<path fill="#FFFFFF" d="M413.9,185.9c16-5.6,32-11.3,48.1-16.9c-0.4-0.6-0.9-1.2-1.3-1.8c-15.8,5.6-31.6,11.1-47.4,16.7
			C413.5,184.5,413.7,185.2,413.9,185.9z"/>
		<path fill="#FFFFFF" d="M134.1,301.9c-23.2,8.2-46.4,16.3-69.6,24.5c0.2,0.7,0.3,1.3,0.5,2c23.1-8.1,46.2-16.2,69.3-24.3
			C134.2,303.3,134.1,302.6,134.1,301.9z"/>
		<path fill="#FFFFFF" d="M481.3,200.8c-0.3-0.6-0.6-1.1-0.8-1.7c-19.4,6.8-38.8,13.7-58.1,20.5c0.1,0.6,0.2,1.3,0.3,1.9
			C442.2,214.6,461.7,207.7,481.3,200.8z"/>
		<path fill="#FFFFFF" d="M411.1,177.5c15.1-5.3,30.2-10.5,45.4-15.7c-0.5-0.6-1-1.2-1.4-1.8c-14.9,5.2-29.8,10.3-44.7,15.5
			C410.6,176.2,410.8,176.9,411.1,177.5z"/>
		<path fill="#FFFFFF" d="M477.5,193.4c-0.3-0.6-0.6-1.2-1-1.7c-3.3,1.1-6.5,2.3-9.8,3.4c-15.4,5.3-30.8,10.7-46.2,16
			c0.1,0.6,0.3,1.3,0.4,1.9c15.5-5.4,30.9-10.7,46.4-16.1C470.8,195.8,474.1,194.6,477.5,193.4z"/>
		<path fill="#FFFFFF" d="M66.5,275.3c-2.4,0.8-4.9,1.7-7.3,2.6c0,0.8,0,1.6,0,2.4c2.7-0.9,5.4-1.9,8.1-2.8
			c22.5-7.8,45-15.6,67.5-23.4c0.1-0.8,0.1-1.6,0.2-2.4C112.1,259.4,89.3,267.3,66.5,275.3z"/>
		<path fill="#FFFFFF" d="M133.8,293.5c0-0.7,0-1.4,0-2.2c-23.8,8.3-47.7,16.5-71.5,24.8c0.1,0.7,0.3,1.4,0.4,2
			C86.4,309.9,110.1,301.7,133.8,293.5z"/>
		<path fill="#FFFFFF" d="M146.1,375.9c-16.7,5.9-33.4,11.7-50.1,17.6c0.3,0.4,0.6,0.9,1,1.3c16.5-5.8,33-11.6,49.5-17.4
			C146.4,376.9,146.2,376.4,146.1,375.9z"/>
		<path fill="#FFFFFF" d="M426.2,248.7c0.1,0.6,0.1,1.2,0.1,1.8c21.9-7.6,43.8-15.2,65.7-22.8c-0.2-0.6-0.4-1.1-0.5-1.7
			C469.8,233.6,448,241.1,426.2,248.7z"/>
		<path fill="#FFFFFF" d="M81.4,370.2c19.4-6.7,38.9-13.5,58.3-20.2c-0.1-0.6-0.2-1.1-0.3-1.7c-19.6,6.8-39.2,13.6-58.8,20.4
			C80.9,369.2,81.2,369.7,81.4,370.2z"/>
		<path fill="#FFFFFF" d="M86.6,379.2c18.4-6.5,36.8-13,55.2-19.5c-0.1-0.6-0.3-1.1-0.4-1.7c-18.6,6.6-37.2,13.1-55.8,19.7
			C86,378.2,86.3,378.7,86.6,379.2z"/>
		<path fill="#FFFFFF" d="M149.2,385.5c-0.2-0.5-0.3-1-0.5-1.4c-15.8,5.5-31.5,11-47.3,16.4c0.3,0.4,0.7,0.8,1,1.3
			C118,396.3,133.6,390.9,149.2,385.5z"/>
		<path fill="#FFFFFF" d="M427.2,297.8c24.4-8.6,48.8-17.2,73.3-25.8c0-0.5-0.1-1-0.1-1.5c-24.4,8.6-48.7,17.1-73.1,25.7
			C427.2,296.8,427.2,297.3,427.2,297.8z"/>
		<path fill="#FFFFFF" d="M424,229.7c0.1,0.6,0.2,1.2,0.3,1.9c20.5-7.1,40.9-14.2,61.3-21.3c-0.2-0.6-0.5-1.1-0.7-1.7
			C464.6,215.6,444.3,222.6,424,229.7z"/>
		<path fill="#FFFFFF" d="M416.7,195.3c17.1-5.9,34.2-11.9,51.2-17.8c-0.4-0.6-0.8-1.2-1.2-1.8c-16.9,5.9-33.7,11.7-50.6,17.6
			C416.4,194,416.5,194.7,416.7,195.3z"/>
		<path fill="#FFFFFF" d="M133.7,283.1c0-0.3,0-0.5,0-0.8c-24.3,8.5-48.6,17-72.8,25.5c0.1,0.7,0.2,1.4,0.3,2.1
			c24.1-8.4,48.3-16.9,72.5-25.4C133.7,284,133.7,283.6,133.7,283.1z"/>
		<path fill="#FFFFFF" d="M427.5,287.2c0,0.5,0,1.1,0,1.6c24.1-8.4,48.2-16.7,72.3-25.1c-0.1-0.5-0.1-1-0.2-1.6
			C475.5,270.5,451.5,278.8,427.5,287.2z"/>
	</g>
	<path fill="none" d="M484.3,211.3c-9.7-23-23.5-44.2-41.3-62.9c-21-21.9-46-38.8-74.4-50.2c-8.7-3.5-17.7-6.4-26.9-8.9
		c0.8,0.5,1.6,1,2.3,1.5c17.2,10.8,31.9,25.3,44.1,43.7c12.1,18.4,21.5,39.9,28,64.7c6.5,24.8,9.7,51.4,9.7,79.8
		c0,43.9-5.9,81.7-17.8,113.6c-11.9,31.9-28.9,56.4-51.1,73.5c-3.7,2.9-7.6,5.5-11.5,7.9c15.2-4.3,29.9-10.2,43.9-17.6
		c33.4-17.7,60.3-42,79.9-72.4C489,353.4,499,319.4,499,282.9C499,258.6,494.1,234.5,484.3,211.3z"/>
	<g>
		<g>
			<path d="M444.9,146.6c-28.1-29.1-63.5-49.3-102.5-59.7c-2.9-0.8-4.5,3.2-2,4.7c49.7,31.4,72.9,87.9,80.2,144.4
				c3.9,30.3,3.5,61.5-0.1,91.8c-3.2,26.6-9.4,53.2-20.5,77.6c-12.2,26.9-30.5,50.8-55.9,66.4c-2.5,1.5-0.9,5.6,2,4.7
				c50.9-14.6,96.5-46.4,125.4-91.2c30.2-46.9,38.3-105.8,21.2-159C483.1,196.5,466.3,169.4,444.9,146.6c-2.3-2.4-5.9,1.2-3.7,3.7
				c37.9,40.3,59.4,94.2,54.5,149.8c-4.6,51.3-31.8,98.2-71.4,130.5c-23.3,19-50.6,32.8-79.5,41.1c0.7,1.6,1.3,3.2,2,4.7
				c47.3-29.1,69.4-84.1,77.4-136.9c9.1-60.1,5.9-125.8-20-181.5c-13.6-29.2-33.8-53.5-61.1-70.8c-0.7,1.6-1.3,3.2-2,4.7
				c38.2,10.2,72.7,29.9,100.2,58.4C443.5,152.7,447.2,149,444.9,146.6z"/>
		</g>
	</g>
	<path fill="none" d="M198,97.3c-30.4,11.1-58.5,28.7-81.3,51.8c-23.5,23.8-41.6,53.4-50.5,85.8c-9.2,33.7-8.3,69.9,2.5,103.2
		c19.8,61.1,69.8,107,129.1,128.5c-10.7-8.7-20-19-28.1-30.4c-15.4-22.3-25.6-47.9-31.9-74.2c-11.8-49.5-11.9-103.6-1.2-153.2
		C145.5,167.9,164.5,124.1,198,97.3z"/>
	<path fill="none" d="M215.4,91.6c2.5-1.5,0.9-5.5-2-4.7c-66.5,18.6-124.6,67.8-148.1,133.6c-24.3,68.3-4.7,144.6,45.1,196.3
		c27.8,28.8,63.5,49,101.8,59.9c2.9,0.8,4.5-3.2,2-4.7c-16-9.9-29.2-23.1-40-38.4c-27.3-39.4-37.7-88.2-39.5-135.4
		c-1.9-50,4.4-102.3,27.7-147.2C174.9,127.2,191.9,105.2,215.4,91.6z M137.9,362c6.3,26.3,16.4,51.8,31.9,74.2
		c8,11.4,17.3,21.7,28.1,30.4C138.5,445,88.5,399.1,68.7,338c-10.8-33.2-11.7-69.5-2.5-103.2c8.8-32.4,27-62,50.5-85.8
		c22.8-23.1,50.9-40.7,81.3-51.8c-33.5,26.9-52.5,70.6-61.3,111.6C126,258.5,126.1,312.6,137.9,362z"/>
	<path d="M174.3,433.6c-27.3-39.4-37.7-88.2-39.5-135.4c-1.9-50,4.4-102.3,27.7-147.2c12.4-23.8,29.4-45.8,52.9-59.4
		c2.5-1.5,0.9-5.5-2-4.7c-66.5,18.6-124.6,67.8-148.1,133.6c-24.3,68.3-4.7,144.6,45.1,196.3c27.8,28.8,63.5,49,101.8,59.9
		c2.9,0.8,4.5-3.2,2-4.7C198.3,462.1,185,448.9,174.3,433.6c-1.9-2.7-6.4-0.1-4.5,2.6c11.3,16,25.1,29.9,41.9,40.2
		c0.7-1.6,1.3-3.2,2-4.7C147.5,453,90.2,404.5,68.7,338c-10.8-33.2-11.7-69.5-2.5-103.2c8.8-32.4,27-62,50.5-85.8
		c26.9-27.3,61.2-46.9,98-57.2c-0.7-1.6-1.3-3.2-2-4.7c-42.8,24.8-66,75.1-76.1,121.7c-10.7,49.7-10.6,103.8,1.2,153.2
		c6.3,26.3,16.4,51.8,31.9,74.2C171.7,438.9,176.2,436.3,174.3,433.6z"/>
	<g>
		<path fill="#FFFFFF" d="M559.6,190c-17.2-29-45-40.2-75.9-45.3c0.7,0.6,1.4,1.2,2.1,1.9c40.7,7.3,62.3,23.6,67.3,44.9
			c0,0.1,0,0.2,0,0.2c1.4,12.1-1.7,24.8-10.4,34.9c-4,4.6-9.1,8.7-15.5,11.9c-3.6,1.8-7.4,3.4-11.4,4.7c-5.6,1.9-11.4,3.3-17.5,4.4
			c0,0,0,0-0.1,0c-22,3.9-46.3,3.2-66.3,1.9c-1.1-0.1-2.3-0.2-3.4-0.3c-11.4-0.8-22.7-2.3-34-4.2c-33-5.6-65.4-15.2-96.9-26.2
			c-26.3-9.2-54.8-16.4-83.7-20.1c-11.6-1.5-23.3-2.4-34.9-2.7c-37.2-0.9-74.2,5-107.5,20.8c-3.8,1.8-7.5,3.7-11.1,5.7
			c-4.2,2.3-8.3,5-12.1,7.8c-7.7,5.7-14.6,12.3-20.7,19.5c-13.9,16.7-23,37.1-25.6,58.3c-7.7,44.9,6.7,93.7,53.7,103.8
			c7.7,1.6,15.4,2.5,23,2.7c-0.7-0.8-1.4-1.6-2.1-2.4c-6.4-0.1-12.9-0.9-19.6-2.4c-32.4-7.5-45.9-50.2-23.3-75.7
			c3.9-4.4,8.9-8.3,15-11.4c4.3-2.2,8.8-3.9,13.6-5.4c25.4-7.9,56.7-7.2,81.5-5.6c4,0.3,7.9,0.6,11.9,1c4.6,0.5,9.2,1,13.8,1.6
			c6.8,0.9,13.5,2.1,20.2,3.4c29.8,5.7,59,14.6,87.5,24.5c24.4,8.5,50.7,15.3,77.5,19.2c7.5,1.1,14.9,2,22.5,2.6
			c11.7,1,23.4,1.3,35,1c35.9-1.1,71.1-8.9,102.5-26.5c2.4-1.3,4.7-2.7,6.9-4.2c15.3-10,27.9-23.6,36.9-39
			C576.8,263.8,580,224.3,559.6,190z"/>
		<g>
			<path d="M563.3,188.3c-17.2-28.4-46.6-41-78.1-46.3c-1.6-0.3-7.6,2.2-5.1,4.4c5,4.5,12.7,4.5,19.1,6.2c6.5,1.8,13,4,19.2,6.9
				c9.2,4.3,18,10.2,24.1,18.5c6.5,8.8,8.3,18.6,6,29.3c-3.5,16.3-15.8,27-30.9,32.6c-15,5.6-31.3,7.3-47.2,7.8
				c-16.3,0.5-32.7-0.3-48.8-1.9c-34.1-3.4-67.4-11.8-99.9-22.2c-15.7-5-31.1-10.8-47-15.3c-16-4.5-32.4-8.2-48.8-10.8
				c-32.6-5.1-66.2-6.1-98.9-0.5c-30.3,5.2-62.1,15.8-86.1,35.6C18,251.4,2.4,277.9-1.9,307.1c-3.3,22.6-3.3,46,6.2,67.3
				c9.1,20.4,26.4,35.2,48.3,40.2c8.1,1.8,16.3,2.7,24.6,3c1.7,0.1,7.4-1.8,5.1-4.4c-2.2-2.5-2.8-3.2-6.1-3.5
				c-3.3-0.2-6.5-0.4-9.7-0.9c-5.9-0.8-11.8-2.2-17-5c-8-4.3-14.4-11.4-18.3-19.6c-8.2-17.3-5.5-38.8,8.9-52.1
				c10.1-9.4,24.6-13.5,37.9-15.8c13.2-2.3,26.7-2.9,40.1-2.8c28.3,0.3,56.4,3.6,84,9.9c28.3,6.4,55.5,16,83,24.9
				c27,8.7,54.8,14.9,83,17.8c52.9,5.5,112.2-0.5,157.3-31c22.9-15.5,40.2-38.9,47.9-65.5C581.4,242.1,577.7,213,563.3,188.3
				c-1.6-2.8-9.3,0-7.4,3.4c27.7,47.5,9.8,108.5-34.3,139.3c-22.4,15.7-50.2,24.4-77.1,28.6c-28.7,4.4-57.9,3.7-86.6-0.4
				c-28.7-4.1-56.4-11.8-83.8-21.2c-27.8-9.5-56-17.8-84.9-23.2c-26.7-5-54.1-7.3-81.3-6.5c-24.3,0.7-53.4,3.7-72.6,20.2
				c-15.9,13.6-21,36-13.2,55.3c3.6,9,9.7,16.9,17.7,22.3c10.3,6.9,23.2,8.7,35.3,9.1c-0.7-0.3-1.5-0.7-2.2-1
				c0.7,0.8,1.4,1.6,2.1,2.4c1.7-1.5,3.4-2.9,5.1-4.4c-14.4-0.5-29.1-2.6-41.7-9.9c-9.5-5.5-17.1-13.6-22.6-23
				c-11.7-20-13.7-44.8-10.5-67.3c2.1-14.6,5.6-28.4,12.5-41.6c7.4-13.9,17.7-26.4,30.1-36.1c25.4-19.9,59-29.8,90.5-33.6
				c33.7-4,68-1.4,101.1,5.4c32.6,6.7,63.4,18.9,95.3,28.2c31.7,9.2,64.2,16,97.2,18.1c29.9,1.9,62.1,2.5,90.4-8.8
				c12.9-5.2,24.5-13.8,30.5-26.7c4.7-10,6.3-22.4,2-32.8c-8-19.4-28.4-29.7-47.4-35.5c-6.7-2-13.5-3.5-20.4-4.8
				c0.7,0.3,1.5,0.7,2.2,1c-0.7-0.6-1.4-1.2-2.1-1.9c-1.7,1.5-3.4,2.9-5.1,4.4c30,5.1,57.4,17.5,73.7,44.3
				C557.6,194.5,565.3,191.6,563.3,188.3z"/>
		</g>
	</g>
	<path d="M42.1,313.3c0-1.2,0-2.4,0-3.6c4.8-2.3,4.8-2.7,4.8-5.6c0-17.9,0-35.8,0-53.6c0-2.8,0-3.4-4.8-1.2c0-1.2,0-2.4,0-3.6
		c3.5-2,7.1-3.9,10.6-5.7c4.4,1.2,8.8,2.6,13.2,4.2c4.4-5.5,8.8-11,13.2-16.4c3.5-1.4,7.1-2.8,10.6-4c0,1.4,0,2.7,0,4.1
		c-4.8,2.1-4.8,2.8-4.8,5.8c0,19.5,0,39.1,0,58.6c0,3.1,0,3.6,4.8,3.1c0,1.4,0,2.7,0,4.1c-4.9,1-9.8,2.1-14.7,3.4c0-1.3,0-2.6,0-3.9
		c4.5-1.7,4.5-2.4,4.5-5.2c0-20.2,0-40.3,0-60.5c-4.6,5.7-9.1,11.4-13.7,17.1c-4.6-1.9-9.1-3.5-13.7-4.8c0,18.9,0,37.8,0,56.8
		c0,2.7,0,3.3,4.4,2.3c0,1.3,0,2.5,0,3.8C51.8,309.8,46.9,311.5,42.1,313.3z"/>
	<path d="M97,297.9c0-1.4,0-2.7,0-4.1c4.5-1.3,4.5-1.9,4.5-5c0-20.2,0-40.3,0-60.5c0-3.2,0-3.9-4.5-2.9c0-1.4,0-2.7,0-4.1
		c4.8-1.5,9.6-2.9,14.4-4.1c0,1.4,0,2.8,0,4.2c-4.5,1.5-4.5,2.2-4.5,5.4c0,20.4,0,40.7,0,61.1c0,3,0,3.7,4.5,3.7c0,1.4,0,2.8,0,4.2
		C106.5,296.4,101.8,297.1,97,297.9z"/>
	<path d="M150.8,295.7c-13.7-2.6-31.7-17.2-31.7-47.6c0-10.3,2.1-17.9,5.2-25.2c5.2-10.9,11-11.8,12.7-12c1.3-0.2,1.9-0.5,1.9-2
		c1.1-0.6,2.1-1.1,3.2-1.6c1.7,3.9,3.3,7.9,5,11.9c-1.2,0.6-2.3,1.2-3.5,1.8c-2-2.5-3.5-4.9-6.9-4.5c-5.3,0.7-11.9,12.3-11.9,31.8
		c0,23.2,10.1,32.9,20.5,39.9c0-9.8,0-19.6,0-29.5c0-3.4,0-4.1-4.5-4.4c0-1.5,0-2.9,0-4.4c4.8-0.3,9.6-0.4,14.4-0.4c0,1.5,0,3,0,4.5
		c-4.5,0.5-4.5,1.2-4.5,4.6C150.8,271,150.8,283.4,150.8,295.7z"/>
	<path d="M160.9,294.9c0-1.5,0-3,0-4.5c4.5-0.3,4.5-1.1,4.5-4.3c0-22.1,0-44.2,0-66.3c0-3.5,0-4.2-4.5-4.7c0-1.5,0-3,0-4.5
		c4.7-0.1,9.4,0,14.1,0.2c0,1.5,0,3.1,0,4.6c-4.1,0.3-4.1,1.1-4.1,4.5c0,1.6,0,3.2,0,4.8c6,0.2,12,0.7,18,1.3c0-1.6,0-3.3,0-4.9
		c0-3.5,0-4.3-4.1-5.2c0-1.5,0-3.1,0-4.6c4.7,0.4,9.4,0.9,14.1,1.5c0,1.6,0,3.1,0,4.7c-4.5-0.1-4.5,0.7-4.5,4.2
		c0,22.7,0,45.4,0,68.2c0,3.3,0,4.2,4.5,5.6c0,1.6,0,3.1,0,4.7c-4.7-0.9-9.4-1.8-14.1-2.5c0-1.5,0-3.1,0-4.6c4.1,0,4.1-0.6,4.1-4.1
		c0-19.2,0-38.4,0-57.6c-6-0.7-12-1.2-18-1.4c0,18.9,0,37.7,0,56.6c0,3.5,0,4.1,4.1,5.2c0,1.5,0,3.1,0,4.6
		C170.3,295.7,165.6,295.3,160.9,294.9z"/>
	<path d="M213.1,303.3c0-1.6,0-3.2,0-4.7c4.5,0.5,4.5-0.2,4.5-3.8c0-24.5,0-48.9,0-73.4c-4.4-0.8-7.2-1.3-9.6,4.1
		c-1.2-0.7-2.3-1.3-3.5-1.9c1.2-3.4,2.4-6.7,3.6-10.1c4,1.1,8.2,2.2,12.2,3c4.2,0.8,8.2,1.3,12.2,1.9c1.2,3.9,2.4,7.8,3.6,11.7
		c-1.2,0.2-2.3,0.4-3.5,0.5c-2.4-6.5-5.2-7.1-9.6-8.1c0,24.5,0,49.1,0,73.6c0,3.6,0,4.4,4.5,6c0,1.6,0,3.2,0,4.8
		C222.7,305.6,217.9,304.4,213.1,303.3z"/>
	<path d="M250.5,313.4c0-1.6,0-3.2,0-4.8c4.5,0.8,4.5,0.1,4.5-3.6c0-20.4,0-40.9,0-61.3c-2.9-4.4-5.8-8.8-8.7-13.2
		c-1.3-1.9-2.4-3.7-5-4.6c0-1.6,0-3.2,0-4.8c4.3,1.1,8.7,2.2,13,3.4c0,1.6,0,3.2,0,4.8c-1.5-0.2-3.1-0.6-3.1,0.3
		c0,0.6,1.2,2.2,1.9,3.2c1.6,2.3,3.2,4.6,4.8,6.9c1.7-1.3,3.5-2.6,5.2-4c1.2-0.9,2.3-1.5,2.3-2.3c0-0.9-2.4-1.6-3.6-2.1
		c0-1.6,0-3.2,0-4.8c4.2,1.2,8.3,2.4,12.5,3.7c0,1.6,0,3.2,0,4.8c-2.2-0.1-2.7,1.1-4.4,2.1c-3.1,2.6-6.3,5.3-9.4,7.9
		c0,20.5,0,40.9,0,61.4c0,3.7,0,4.5,4.5,6.3c0,1.6,0,3.2,0,4.8C260.1,316.3,255.3,314.8,250.5,313.4z"/>
	<path d="M343.2,341.3c-0.8,2.3-3,5.6-7.1,4.6c-2.8-0.7-5.5-3.4-7.4-5.6c-2.2-2.4-3.3-4.3-5.9-5c-3.7-1-7.1,2.3-9.1,4.3
		c-1.2-1.5-2.5-3.1-3.7-4.6c0.9-1,2.1-2.1,3.7-3c-5.4-6-10.4-18.1-10.4-41.9c0-31.2,5-50.7,17.4-47c12.4,3.8,19.1,26.6,19.1,57.4
		c0,21.1-2.1,28.1-8.7,34.9c1.4,1.8,3,3.8,5.1,4.4c1.3,0.3,2.6-0.4,3.6-1.3C340.9,339.5,342.1,340.4,343.2,341.3z M320.6,249.2
		c-8-2.4-11.5,17.1-11.5,42.7c0,24.7,4.7,33.5,9.3,37.8c1.4-0.7,3.1-0.8,4.6-0.4c1.1,0.3,2.3,0.8,3.3,1.4c5.1-3.6,7.8-9.7,7.8-31.6
		C334,273.7,329.1,251.8,320.6,249.2z"/>
	<path d="M381.4,325.7c0,14.5-2.8,23-15.7,20.9c-12.3-2.2-15.1-11.8-15.1-26.6c0-19.1,0-38.1,0-57.2c0-3.7,0-4.4-4.2-6
		c0-1.6,0-3.2,0-4.8c4.6,1.2,9.3,2.4,13.9,3.5c0,1.6,0,3.2,0,4.8c-4.3-0.5-4.3,0.2-4.3,3.9c0,19.2,0,38.4,0,57.5
		c0,11.3,2,17.5,9.8,18.9c8.1,1.4,10-4.1,10-15.2c0-18.9,0-37.9,0-56.8c0-3.6,0-4.3-4.3-5.7c0-1.6,0-3.1,0-4.7
		c4.6,1,9.2,1.9,13.9,2.7c0,1.6,0,3.1,0,4.7c-4.1-0.2-4.1,0.5-4.1,4.1C381.4,288.3,381.4,307,381.4,325.7z"/>
	<path d="M392.1,348.5c0-1.5,0-3.1,0-4.6c4.5-0.3,4.5-0.9,4.5-4.4c0-22.5,0-44.9,0-67.4c0-3.5,0-4.2-4.5-5.4c0-1.5,0-3.1,0-4.6
		c4.8,0.8,9.6,1.4,14.4,1.9c0,1.5,0,3.1,0,4.6c-4.5,0-4.5,0.7-4.5,4.2c0,22.3,0,44.7,0,67c0,3.3,0,4.1,4.5,4.9c0,1.5,0,3.1,0,4.6
		C401.7,349.1,396.9,348.9,392.1,348.5z"/>
	<path d="M413.9,344.7c4.5-0.6,4.5-1.3,4.5-4.7c0-22,0-43.9,0-65.9c0-3.5,0-4.1-4.5-4.9c0-1.5,0-3,0-4.5c3.3,0.3,6.6,0.5,9.9,0.6
		c0,0.4,0,0.8,0,1.2c0,2,0.2,2.3,1.9,3.3c5.9,3.8,11.8,7.3,17.8,10.5c0-2,0-3.9,0-5.9c0-3.4,0-4-4.5-4.4c0-1.5,0-2.9,0-4.4
		c4.8-0.1,9.6-0.3,14.4-0.6c0,1.4,0,2.9,0,4.3c-4.5,0.8-4.5,1.4-4.5,4.8c0,21.1,0,42.2,0,63.3c0,3.1,0,3.9,4.5,3.7
		c0,1.4,0,2.9,0,4.3c-4.8,0.9-9.6,1.7-14.4,2.3c0-1.5,0-2.9,0-4.4c4.5-1.1,4.5-1.7,4.5-5.1c0-17.4,0-34.7,0-52.1
		c-6.5-3.5-13.1-7.4-19.6-11.7c0,21.8,0,43.6,0,65.5c0,3.2,0,4,4.5,4.3c0,1.5,0,3,0,4.5c-4.8,0.4-9.6,0.6-14.4,0.6
		C413.9,347.7,413.9,346.2,413.9,344.7z"/>
	<path d="M460.4,339.6c4.5-1.6,4.5-2.2,4.5-5.4c0-20.6,0-41.2,0-61.8c0-3.2,0-3.9-4.5-3.8c0-1.4,0-2.8,0-4.3
		c3.3-0.3,6.6-0.7,9.9-1.2c0,0.4,0,0.7,0,1.1c0,1.9,0.2,2.1,1.8,2.7c5.9,2.4,11.8,4.5,17.7,6.3c0-1.8,0-3.6,0-5.4
		c0-3.1,0-3.7-4.5-3.2c0-1.4,0-2.7,0-4.1c4.8-1,9.6-2.1,14.3-3.3c0,1.3,0,2.6,0,4c-4.5,1.6-4.5,2.2-4.5,5.3c0,19.4,0,38.9,0,58.3
		c0,2.8,0,3.6,4.5,2.3c0,1.3,0,2.6,0,4c-4.8,2-9.6,3.8-14.3,5.5c0-1.4,0-2.7,0-4.1c4.5-2.1,4.5-2.6,4.5-5.7c0-16,0-32.1,0-48.1
		c-6.5-1.9-13-4.3-19.6-7c0,20.4,0,40.8,0,61.2c0,3,0,3.8,4.5,3.1c0,1.4,0,2.8,0,4.2c-4.8,1.4-9.6,2.7-14.4,3.8
		C460.4,342.4,460.4,341,460.4,339.6z"/>
	<path d="M523.2,258.1c-3.6-1.6-5-2.6-7.1-2c-2.1,0.7-3.1,2.4-3.1,3.9c0,3.5,4.6,7.2,11.3,15.7c5.2,6.5,11.6,14.4,11.6,23.6
		c0,9.6-7.3,19.1-15.5,23.4c-2.9,1.5-6.3,2-8.4,1.8c-0.7,0.7-1.3,1.4-2,2c-0.9,0.4-1.9,0.9-2.8,1.3c-0.5-3.5-1-7.1-1.5-10.6
		c1.2-0.9,2.3-1.8,3.5-2.7c2,3.2,4.3,6.9,11.2,3.5c5.7-2.9,10.1-9.6,10.1-15c0-8.4-5.4-15.7-10.5-22.1c-7.5-10-12.4-14.6-12.4-19.7
		c0-4.6,2.9-8.1,7.6-9.5c0.9-0.3,1.6-0.4,2.5-0.6c0.7-0.6,1.3-1.3,2-1.9c1.1-0.4,2.2-0.7,3.3-1.1c1.3,2.6,2.6,5.1,3.9,7.6
		C525.6,256.4,524.4,257.3,523.2,258.1z"/>
	<path d="M457.2,49.6c-4.4-1.4-9.2-2.7-12.2-3.9v1.2c3,1.2,7.6,2.4,11.9,3.7c17.5,5.1,34.8,11.1,51.7,18
		C491.8,61.4,474.6,55.1,457.2,49.6z"/>
	<path d="M147,45.7c-6,1.2-9.9,2.5-14.3,3.9c-17.5,5.5-35.2,11.8-52,18.9c16.9-6.8,35-12.8,52.6-18c4.3-1.3,7.7-2.5,13.7-3.7V45.7z"
		/>
	<path d="M142.2,575.1c-1.9,6.1,1.1,11.1,6.4,12.6c4.4,1.3,7.3-0.5,8.2-3.1c0.1-0.3,0.2-0.4,0.5-0.4c0.3,0.1,0.4,0.4,0.2,1.1
		c-0.3,0.9-1.1,2.7-2.5,4c-2.7,2.4-6.9,3.8-11.3,2.5c-6.8-2-11.2-8.1-8.8-15.2c4.9-14.3,25-17.5,41.9-13.4
		c14.7,3.6,23.2,10.3,21.4,20c-1.3,7.2-11.9,11.1-17.5,11.1c6.7,3.6,15,9.1,13.3,18.1c-1.8,9.6-11.7,13.5-21.6,11.3
		c-6.2-1.4-11.8-6.9-16.9-12.2c-4.8,6-11.3,8.9-19.7,6.5c-7-2.1-10.9-8.3-9.3-13c2.3-7,9.5-7.8,15.2-6.1c3,0.9,5.8,2.8,8.5,5.2
		c0.3-0.5,0.6-0.9,0.9-1.4c8.8-12.5,13.7-19.8,17.7-24.3c4.9-5.4,10.4-6.9,11.7-7.1c1-0.2,1.6-0.2,2.1-0.1c0.4,0.1,0.5,0.3,0.5,0.5
		c-0.1,0.3-0.6,0.4-1.4,0.6c-1.5,0.5-5,1.9-8.7,7c-3.1,4.3-7.3,13.6-13.6,26c-0.9,1.8-1.9,3.4-3,4.9c4.9,4.9,9.9,9.7,15.7,11
		c7.2,1.6,12.4-4.9,13.4-10.1c1.3-6.3-2.8-12.3-8.7-15.6c-0.8,0.2-2.8,0.5-4.7,0c-2-0.5-3.2-1.9-2.7-3.6c0.5-2.2,2.5-2.8,4.2-2.4
		c2.3,0.6,3.5,1.6,5.4,3.4c4.2-0.8,9.5-5,10.8-11.7c1.5-7.2-1.1-13.9-13.3-16.8C162.9,560.9,146,563.5,142.2,575.1z M149.3,605.1
		c-2.6-2.4-5.1-4.3-7.9-5.1c-4.3-1.3-8.6,0-9.8,3.9c-1,3.1,0.3,6.2,4.7,7.6C140.6,612.8,144.8,610.7,149.3,605.1z"/>
	<path d="M244,618.7c0,0,0.4-0.5,0.7-0.4c0.3,0,0.5,0.2,0.5,0.5c0,0.3-0.4,0.7-0.4,0.7c-4.5,5.3-11.6,12.5-18.8,11.7
		c-4.2-0.5-7.7-3.6-7.9-8.1c-2.3,2.2-7.3,6.1-13.2,5.1c-4.9-0.8-9.4-4.1-8.2-11c1.6-8.6,11.1-15,21-13.6c3.8,0.5,5.1,2.2,6.5,4.3
		c1.8-1.4,3.6-2.3,5.5-2.1c2.2,0.3,3.4,1.8,3.2,3.8c-0.4,3.4-3.5,7.1-6.8,9.4c-0.7,5.5,2.9,7.6,5.4,7.9
		C235.8,627.5,240.2,623.3,244,618.7z M219.1,605.5c-6.5-0.9-12.3,5.4-13.6,13.2c-0.6,3.9,1.1,6.3,3.8,6.7c2.9,0.5,6.1-1.7,8.6-4
		c0.6-4.3,2.3-9.6,5.2-12.7C222.4,607.2,221.1,605.8,219.1,605.5z"/>
	<path d="M275.3,620.6c0,0,0.3-0.5,0.7-0.5c0.3,0,0.5,0.2,0.5,0.5c0,0.3-0.3,0.8-0.3,0.8c-4.1,5.5-11.1,13.2-19.7,12.6
		c-5.8-0.4-8.4-3.1-8.1-6.8c0.3-3.9,4.9-6.9,5.1-9.1c0.1-1-3-2.4-4.8-4.2c-1.1,2-2.2,3.4-3.9,5.5c0,0-0.3,0.4-0.7,0.3
		c-0.3,0-0.5-0.2-0.5-0.5c0-0.3,0.4-0.7,0.4-0.7c1.7-1.9,2.8-3.6,3.9-5.3c-1-1.2-2.1-3.3-1.9-4.9c0.3-3.2,2.4-4.5,4.9-4.3
		c1.8,0.1,3.1,1.3,2.9,3c-0.1,1.8-0.9,2.7-3.1,4.5c-0.2,1.9,10.8,2.1,10.7,5.3c-0.2,3.4-3.3,6.5-3.6,10.5c-0.1,2,1.6,3,3.4,3.1
		C267.1,631,271.8,625.4,275.3,620.6z"/>
	<path d="M293.2,635.2c-5,0-8.3-1.9-8.2-5.6c0.1-3.3,3.6-5.3,7.3-5.3c2,0,4.5,0.2,7.1,0.5c0.6-1.8,0.9-4.2,0.9-6.4
		c0-2.4-1.3-6.7-4.9-6.7c-4.5,0-8.2,4.2-10.7,8.6c-2,3.4-2.7,8.5-2.8,12.6c0,1-0.5,2.2-3.1,2.2c-3.9-0.1-5.1-3.6-5-6
		c0.3-8.9,4.7-24.6,11-35.8c5.5-9.5,11-13.3,16-13.4c2.4,0,4.4,1.7,4.5,4.1c0.3,8.1-9.7,20.4-20.3,28.6c-0.3,1.5-1.3,4.4-2.2,8.1
		c3-5.2,8.7-11.6,15.7-11.7c7.3-0.1,10.3,4.3,10.5,10c0.1,2-0.4,4.6-1.1,6.4c4.1-0.1,6.8-1.5,9.2-5.1c0,0,0.3-0.5,0.6-0.5
		c0.3,0,0.5,0.2,0.6,0.5c0,0.3-0.3,0.8-0.3,0.8c-1.9,2.9-4,4.2-6,4.9c-1.8,0.6-3.6,0.6-5,0.7C304.3,631.8,298.5,635.2,293.2,635.2z
		 M291.1,596.5c-4.1,8.5-5.7,14.2-5.7,14.2c8.9-7.3,18-17.5,17.7-24.9c0-1.4-0.6-2-2.4-2C299.1,583.8,295.7,587,291.1,596.5z
		 M299,626c-2.3-0.4-4.5-0.5-6.4-0.5c-2.2,0-4.6,1.2-4.6,3c0,1.7,1.5,2.7,4.2,2.7C294.9,631.2,297.4,629.2,299,626z"/>
	<path d="M347.7,617.9c0,0,0.3-0.5,0.6-0.6c0.3,0,0.6,0.1,0.6,0.4c0,0.3-0.2,0.8-0.2,0.8c-3.3,6.1-9.6,14.7-19.5,15.3
		c-7.1,0.5-13-2.7-13.3-9.1c-0.2-5.3,3-10.7,6.9-13.8c2.9-2.3,6.3-3.4,9.3-3.7c4.1-0.3,6.5,1.3,6.7,4c0.5,5.1-8.3,10.2-13.3,12.2
		c0.3,4.4,3.6,6.3,8.5,6C340.1,629.1,344.9,623.1,347.7,617.9z M336.4,612.4c-0.1-1.6-1-2.3-2.7-2.1c-3.4,0.3-8.6,5.7-8.3,12.1
		C329.4,620.9,336.8,616.4,336.4,612.4z"/>
	<path d="M390.2,611.7c0,0,0.2-0.5,0.5-0.6c0.3-0.1,0.6,0.1,0.6,0.4c0.1,0.3-0.2,0.8-0.2,0.8c-2.8,6.3-10.2,13.8-16.6,16.8
		c3.4,2.5,7.8,7.2,9.2,15.5c1.4,8-0.6,17.8-7.3,18.8c-3.6,0.5-8.8-1.7-10.1-11.5c-1.2-9.8,1.7-28.6,1.6-28.6c0,0-4.8,7.2-11.7,8
		c-4.1,0.5-9.1-1.3-9.7-8c-1-10.9,8.8-18.3,16.7-19.4c6-0.8,8.4,2.3,9.1,3.6c1.5-3.6,3.4-5.2,4.9-5.4c2.8-0.5,4.6,0.6,5,2.7
		c0.3,1.5-0.3,3.4-2.6,6.4c-1.9,2.4-2.6,4.2-3.3,7.5c-0.7,3.2-1.3,6.9-1.6,9C380,625.2,387.8,617.1,390.2,611.7z M365.2,605.5
		c-6.6,0.9-11.1,8.9-10.2,16.7c0.4,3.6,2.8,5.5,5.8,5.1c3.1-0.4,6.4-4,8.1-7.4c1.6-3.3,2.6-8.9,2.4-10
		C370.9,607,368.1,605.1,365.2,605.5z M374.3,650.3c1,6.5,3.1,8.6,5.3,8.3c2-0.3,3.9-6.6,2.7-13.7c-1.3-7.9-5.5-12.5-8-14.1
		C374.2,632.7,373.4,643.8,374.3,650.3z"/>
	<path d="M432.3,601.9c0,0,0.2-0.6,0.5-0.6c0.3-0.1,0.6,0,0.7,0.3c0.1,0.3-0.1,0.8-0.1,0.8c-2.3,6.5-6.9,15.9-13.6,17.6
		c-5,1.2-8.6-1.7-10.1-5.3c-2.5,3.5-7,9.3-12.7,10.4c-5,1-8.6-0.8-9.4-5c-0.8-4.4,5.1-13.7,4.2-17.9c-0.5-2.4-1.1-2.8-1.2-3.3
		c-0.1-0.5,0.2-0.8,0.7-0.9c0.5-0.1,1.6,0.2,2.2,0.4c2,0.9,4.2,2.2,4.8,5.1c0.7,3.2-2.2,10.8-1.3,15.1c0.3,1.6,2.2,2.5,3.9,2.1
		c3.1-0.6,5.9-4,8.2-7.4c-1.2-5.5-1-17.5,5.6-19.1c2.4-0.6,3.7,0.3,4.2,2.4c0.7,2.6-0.6,7.6-3.1,11.6c1,4.2,3.1,7.5,7.7,6.4
		C427.4,613.5,430.4,607.5,432.3,601.9z"/>
	<path d="M455.6,603.3c0.4-0.6,0.6-1,1-1.2c0.3-0.1,0.6,0,0.7,0.3c0.1,0.4,0.1,0.6-0.5,1.6c-2,3.4-4.4,6.9-10.6,8.8
		c-6.9,2-12.4,0-14.1-6.2c-1.4-5.1,0.6-11.1,3.8-15c2.4-2.9,5.5-4.8,8.3-5.7c4-1.2,6.7-0.2,7.5,2.4c1.6,4.8-5.9,11.8-10.4,14.9
		c1.2,4.2,4.5,5.4,9.3,3.9C452.3,606.7,454.6,604.9,455.6,603.3z M449.6,589.8c-0.5-1.5-1.5-2-3.2-1.5c-3.3,1-7.3,7.5-5.5,13.7
		C444.6,599.7,450.8,593.7,449.6,589.8z"/>
	<path d="M534.3,453.4c0,0,76.1,63.1-20.7,106.8c-96.8,43.7-188.3-105.7-188.3-105.7s-40.7-63.2-130.9-40.3l-8.1-17.5
		c0,0,78.2-30.7,201.6,58.4c123.4,89.1,150.5,39.5,150.5,39.5S550.9,474.1,534.3,453.4z"/>
	<g>
		<path fill="#FFFFFF" d="M247.4,386.3c-4.8,0-9.7,0.2-14.6,0.6c-4.9,0.4-9.9,1-15,1.8c-5,0.8-10.1,1.9-15.3,3.2
			c-5.1,1.3-10.3,2.8-15.6,4.6c0.1,0,1-0.3,2.4-0.6c1.4-0.3,3.4-0.7,5.9-1.1c2.5-0.4,5.6-0.8,9.1-1c3.5-0.3,7.4-0.5,11.7-0.5
			c6.8,0,14.5,0.5,22.6,1.9c8.1,1.4,16.6,3.6,25.2,7.2c8.5,3.5,17.1,8.3,25.3,14.8c8.2,6.5,16,14.6,23,24.8
			c8.4,12.2,18,25.3,28.6,38c10.6,12.7,22.3,25.1,34.9,35.9c12.6,10.8,26.2,20.1,40.5,26.7c14.4,6.6,29.5,10.5,45.3,10.5
			c5.7,0,11.5-0.5,17.3-1.6c5.9-1.1,11.8-2.7,17.8-4.9c6-2.2,12.1-5.1,18.3-8.6c6.2-3.5,12.4-7.7,18.7-12.6c0.5-0.5,3.4-3,6.6-7.2
			c3.2-4.2,6.8-10,8.6-16.9c1.8-6.9,2-14.9-1.6-23.6c-3.6-8.6-10.9-17.9-23.9-27.3c4.6,4.1,7,9.1,7.3,14.2
			c0.4,5.1-1.1,10.5-4.2,15.3c-3,4.8-7.5,9.1-13.1,12.2c-5.6,3.1-12.2,5-19.5,5c-7.2-0.2-14.1-1.1-20.7-2.6
			c-6.6-1.6-12.9-3.8-19-6.5c-6.1-2.7-11.9-5.9-17.5-9.6c-5.6-3.6-11-7.6-16.2-11.9c-0.9-1-6-6.5-14.6-14.2
			c-8.6-7.7-20.8-17.6-35.9-27.3c-15.2-9.8-33.3-19.4-53.9-26.6C295.4,391.1,272.3,386.3,247.4,386.3z"/>
		<g>
			<path d="M249.3,384.4c-21.8,0.1-43.3,4-63.9,10.9c-0.8,0.3-3.3,1.3-2.7,2.5c0.6,1.2,3.9,0.3,4.7,0.1c15.2-3.9,32.3-3.6,47.7-1
				c17.8,3,34.9,10,49.2,21.2c13.8,10.7,22.9,24.7,33.1,38.7c10.3,14.2,21.3,27.9,33.3,40.6c23.7,25.1,52.9,48.4,87.5,55.4
				c34.2,6.9,68.2-4.4,95.7-24.9c12.3-9.1,21.6-24.2,20.6-39.9c-1.2-16.9-14.1-29.9-27-39.3c-1.8-1.3-9.9,1.5-8.3,3.1
				c8.7,8.3,9,20.2,2.2,29.9c-7.5,10.7-19.2,14.1-31.8,12.9c-12.6-1.2-24.9-5-36.2-10.7c-10-5-20.5-11.4-28.7-19.1
				c-5.4-5.1-10.4-10.5-16-15.5c-7.6-6.7-15.5-12.9-23.7-18.8c-18.1-12.8-37.6-23.6-58.3-31.6c-24.4-9.4-50.2-14.5-76.3-14.6
				c-1.9,0-4.7,0.3-6.2,1.7c-1,1-1.5,2.1,0.6,2.1c51.9,0.3,101,21.2,141.6,52.6c16,12.4,29.1,28,46.2,39
				c19.3,12.5,45.1,22.6,68.5,18.1c11.1-2.1,22-7.7,28.7-17.1c7.4-10.4,7.2-23.1-2.2-32.1c-2.8,1-5.5,2-8.3,3.1
				c11.5,8.4,22.8,19.2,25.8,33.7c3,14.5-4,29.9-14.8,39.5c-13,11.6-30.7,20.4-47.6,24.1c-17.6,3.8-35.8,1.8-52.7-4.2
				c-32.5-11.7-59.2-36.6-81.4-62.3c-11.3-13.1-21.6-26.9-31.4-41.1c-9-12.9-19.8-24.2-33.2-32.6c-27.9-17.4-65.3-22.1-97.1-14
				c0.7,0.9,1.3,1.8,2,2.6c18.5-6.2,37.6-9.3,57.1-9.4C248.1,388.2,255.1,384.4,249.3,384.4z"/>
		</g>
	</g>
	<path d="M504,252.1c1.4-0.3,2,0.6,2.2,1.8c0.4,2.1-2.1,6-2.8,6.1c-0.6,0.1-0.8,0-0.9-0.5c-0.2-0.8,0.6-2.3,0.3-3.6
		c-0.1-0.4-0.2-0.9-0.3-1.4C502.3,253.7,502.8,252.4,504,252.1z"/>
	<path d="M462,537c20.7,0,41.6-8.6,62.3-24.6c1.6-1.6,9.2-9.9,10.5-19.9c-9.8,10.9-24.7,17.6-40.5,17.6c-0.4,0-0.8-0.1-1.2-0.1
		c-28-0.6-54.8-11.8-81.7-34l-0.8-0.7l-0.7-0.8c-0.5-0.6-42.8-46-104.9-66c7.4,6.7,14.1,14.8,20,23.4C372.6,501.3,418.7,537,462,537
		L462,537z"/>
	<g>
		<path fill="#FFFFFF" d="M422.3,484.3c-0.1-0.1-0.3-0.2-0.4-0.3c-13.7,4.8-27.4,9.6-41,14.4c0.1,0.1,0.2,0.2,0.3,0.3
			C394.9,493.9,408.6,489.2,422.3,484.3z"/>
		<path fill="#FFFFFF" d="M454.5,502.1c-0.1,0-0.2-0.1-0.3-0.1c-6.7,2.4-13.5,4.7-20.2,7.1c-9.1,3.2-18.2,6.4-27.2,9.5
			c0.1,0.1,0.2,0.1,0.3,0.2c9-3.2,18.1-6.3,27.1-9.5C440.8,506.9,447.6,504.5,454.5,502.1z"/>
		<path fill="#FFFFFF" d="M397.7,512.4c14.9-5.2,29.8-10.4,44.8-15.7c-0.1-0.1-0.2-0.1-0.4-0.2c-14.9,5.2-29.8,10.4-44.7,15.6
			C397.5,512.2,397.6,512.3,397.7,512.4z"/>
		<path fill="#FFFFFF" d="M413.1,477.3c-13.2,4.6-26.5,9.3-39.8,13.9c0.1,0.1,0.2,0.2,0.4,0.4c13.3-4.7,26.6-9.3,39.8-14
			C413.4,477.6,413.2,477.5,413.1,477.3z"/>
		<path fill="#FFFFFF" d="M363.6,436.9c-0.3-0.2-0.5-0.3-0.8-0.5c-9.2,3.3-18.5,6.5-27.7,9.8c0.2,0.2,0.3,0.4,0.5,0.6
			C344.9,443.5,354.3,440.2,363.6,436.9z"/>
		<path fill="#FFFFFF" d="M431.9,490.8c-0.1-0.1-0.2-0.2-0.4-0.2c-14.2,5-28.4,10-42.6,14.9c0.1,0.1,0.2,0.2,0.3,0.3
			C403.5,500.8,417.7,495.8,431.9,490.8z"/>
		<path fill="#FFFFFF" d="M533.5,493.9c-0.1,0.1-0.1,0.1-0.2,0.2c0.5-0.2,0.9-0.3,1.4-0.5c0-0.1,0-0.1,0-0.2
			C534.3,493.6,533.9,493.7,533.5,493.9z"/>
		<path fill="#FFFFFF" d="M468.9,506.7c-0.1,0-0.2-0.1-0.3-0.1c-17.2,6.1-34.4,12.1-51.5,18.1c0.1,0,0.2,0.1,0.2,0.1
			C434.4,518.8,451.7,512.8,468.9,506.7z"/>
		<path fill="#FFFFFF" d="M443.7,534.9c0.1,0,0.1,0,0.2,0c28.5-10,57.4-20.2,86.5-30.5c0,0,0.1-0.1,0.1-0.1
			C501.2,514.6,472.3,524.8,443.7,534.9z"/>
		<path fill="#FFFFFF" d="M488,509.7c-19.6,6.8-39.2,13.7-59,20.6c0.1,0,0.1,0.1,0.2,0.1c19.8-6.9,39.5-13.8,59.2-20.7
			C488.3,509.8,488.1,509.8,488,509.7z"/>
		<path fill="#FFFFFF" d="M305.6,409.1c0.2-0.1,0.4-0.1,0.6-0.2c-0.4-0.1-0.9-0.3-1.3-0.4C305.2,408.7,305.4,408.9,305.6,409.1z"/>
		<path fill="#FFFFFF" d="M330.8,418.6c-4.1,1.4-8.3,2.9-12.4,4.3c0.2,0.3,0.4,0.5,0.6,0.8c4.3-1.5,8.7-3,13-4.5
			C331.6,419,331.2,418.8,330.8,418.6z"/>
		<path fill="#FFFFFF" d="M353.6,469.7c12.4-4.3,24.7-8.6,37.1-12.9c-0.2-0.1-0.4-0.3-0.5-0.4c-12.3,4.3-24.7,8.6-37,12.9
			C353.3,469.4,353.4,469.5,353.6,469.7z"/>
		<path fill="#FFFFFF" d="M318,413.2c-2,0.7-4.1,1.4-6.1,2.2c0.2,0.3,0.5,0.5,0.7,0.8c2.3-0.8,4.5-1.6,6.8-2.4
			C318.9,413.5,318.4,413.3,318,413.2z"/>
		<path fill="#FFFFFF" d="M466,536.9c0.1,0,0.2,0,0.2,0c15.2-5.2,30.2-10.4,45.1-15.5c0.1,0,0.1-0.1,0.2-0.1
			C496.5,526.4,481.4,531.6,466,536.9z"/>
		<path fill="#FFFFFF" d="M354.4,431.1c-0.3-0.2-0.6-0.4-0.9-0.6c-7.9,2.7-15.8,5.5-23.6,8.2c0.2,0.2,0.3,0.5,0.5,0.7
			C338.3,436.7,346.3,433.9,354.4,431.1z"/>
		<path fill="#FFFFFF" d="M342.1,424.2c-6,2.1-12,4.2-18,6.4c0.2,0.3,0.4,0.5,0.5,0.8c6.2-2.2,12.4-4.4,18.6-6.5
			C342.8,424.6,342.4,424.4,342.1,424.2z"/>
		<path fill="#FFFFFF" d="M405.7,470.3c-13.2,4.6-26.3,9.2-39.4,13.7c0.1,0.1,0.2,0.3,0.4,0.4c13.1-4.6,26.3-9.2,39.5-13.7
			C406,470.5,405.8,470.4,405.7,470.3z"/>
		<path fill="#FFFFFF" d="M398.6,463.6c-0.2-0.1-0.3-0.3-0.5-0.4c-12.8,4.5-25.7,9-38.5,13.5c0.1,0.1,0.3,0.3,0.4,0.4
			C372.9,472.6,385.7,468.1,398.6,463.6z"/>
		<path fill="#FFFFFF" d="M382.1,450c-0.2-0.2-0.4-0.3-0.6-0.5c-11.5,4.1-23,8.1-34.5,12.2c0.1,0.2,0.3,0.4,0.4,0.5
			C359,458.1,370.5,454,382.1,450z"/>
		<path fill="#FFFFFF" d="M341.5,454.7c10.6-3.7,21.3-7.4,31.9-11.1c-0.2-0.2-0.5-0.3-0.7-0.5c-10.6,3.7-21.1,7.3-31.7,11
			C341.2,454.3,341.3,454.5,341.5,454.7z"/>
	</g>
	<path fill="none" d="M462,537c20.7,0,41.6-8.6,62.3-24.6c1.6-1.6,9.2-9.9,10.5-19.9c-9.8,10.9-24.7,17.6-40.5,17.6
		c-0.4,0-0.8-0.1-1.2-0.1c-28-0.6-54.8-11.8-81.7-34l-0.8-0.7l-0.7-0.8c-0.5-0.6-42.8-46-104.9-66c7.4,6.7,14.1,14.8,20,23.4
		C372.6,501.3,418.7,537,462,537L462,537z"/>
	<path fill="none" d="M494.4,510.2c-0.4,0-0.8-0.2-1.2-0.2c-28-0.6-54.8-11.8-81.7-34.1l-0.8-0.7l-0.7-0.8
		c-0.5-0.6-42.8-46-104.9-66c7.4,6.7,14.1,15.8,20,24.4C372.6,502.3,418.7,539,462,539h0c20.7,0,41.6-9.6,62.3-25.6
		c1.6-1.6,9.2-10.4,10.5-20.4C525,503.8,510.1,510.2,494.4,510.2z"/>
	<g>
		<path d="M462,540L462,540c-43.2,0-89.8-35.8-138.2-106.5c-4.7-6.8-11.8-16.7-19.8-23.9l-5.2-4.7l6.7,2.1
			c62.8,20.2,105.2,65.9,105.6,66.4l0.7,0.7l0.7,0.6c26.7,22.1,53.1,33.1,80.8,33.7c0.3,0,0.6,0.1,0.9,0.1c0.1,0,0.2,0.1,0.3,0.1
			c15.1,0,29.8-6.3,39.4-16.9l3.2-3.6l-0.6,4.8c-1.5,11.7-10.9,21.1-11,21.2l-0.1,0.1C503.2,531.4,482,540,462,540z M310.7,412
			c6.1,6.4,11.4,13.8,15.5,19.8C374.1,501.6,419.8,537,462,537h0c19.3,0,39.9-8.4,61.3-25c2-2,6.6-7.7,8.9-14.4
			c-10,8.9-23.7,14.1-37.8,14.1c-0.4,0-0.7-0.1-0.9-0.1c-0.1,0-0.2-0.1-0.3-0.1c-28.3-0.6-55.4-11.9-82.7-34.4l-1-0.9l-0.7-0.8
			C408.4,475.1,369.4,432.9,310.7,412z"/>
	</g>
</g>
</svg>
