<?xml version="1.0" encoding="UTF-8" standalone="no"?>
<svg width="100px" height="100px" viewBox="0 0 100 100" version="1.1" xmlns="http://www.w3.org/2000/svg" xmlns:xlink="http://www.w3.org/1999/xlink" xmlns:sketch="http://www.bohemiancoding.com/sketch/ns">
    <!-- Generator: Sketch 3.4.2 (15855) - http://www.bohemiancoding.com/sketch -->
    <title>Artboard 15</title>
    <desc>Created with Sketch.</desc>
    <defs></defs>
    <g id="Page-1" stroke="none" stroke-width="1" fill="none" fill-rule="evenodd" sketch:type="MSPage">
        <g id="Artboard-15" sketch:type="MSArtboardGroup" fill="#F2F2F2">
            <g id="noun_17234" sketch:type="MSLayerGroup" transform="translate(0.000000, 9.000000)">
                <path d="M98.9591837,86.293 C94.4908163,74.754 86.9326531,72.055 80.8438776,70.99 C75.7642857,70.097 69.4326531,68.244 67.1908163,67.035 C67.1173469,66.035 67.0785714,64.006 67.2816327,60.691 C67.405102,60.554 67.5316327,60.437 67.6540816,60.293 L67.5908163,60.236 C70.5928571,56.289 72.027551,52.582 72.6734694,50.077 C74.6132653,48.737 76.6489796,46.125 77.8479592,41.075 C78.5408163,38.147 79.0602041,34.45 76.9163265,31.802 C76.8632653,31.739 76.8142857,31.678 76.7622449,31.615 C78.6826531,13.068 66.5510204,3.697 59.4255102,1.258 L59.3234694,1.224 L59.2244898,1.196 C56.5397959,0.404 53.9520408,0 51.5469388,0 C50.9806122,0 50.4510204,0.024 49.9377551,0.063 C49.4132653,0.021 48.8755102,0 48.3387755,0 C45.927551,0 43.3428571,0.403 40.6571429,1.195 L40.5591837,1.226 L40.4602041,1.257 C33.3316327,3.695 21.2030612,13.067 23.122449,31.614 C23.0663265,31.677 23.0163265,31.738 22.9683673,31.801 C20.8214286,34.449 21.3438776,38.147 22.0367347,41.074 C23.2357143,46.125 25.2673469,48.736 27.2112245,50.076 C27.8510204,52.561 29.2816327,56.219 32.227551,60.133 L32.227551,60.135 C32.2316327,60.139 32.2591837,60.174 32.2622449,60.18 C32.4316327,60.405 32.5510204,60.618 32.7295918,60.842 C32.9204082,64.018 32.8846939,65.998 32.7969388,67.043 C30.5428571,68.242 24.2295918,70.098 19.155102,70.988 C13.0683673,72.052 5.50918367,74.752 1.04285714,86.287 C0.284693878,88.25 0.555102041,90.377 1.78469388,92.123 C6.37040816,98.633 30.5357143,100 50,100 C69.4642857,100 93.6326531,98.633 98.2163265,92.125 C99.4469388,90.379 99.7142857,88.252 98.9591837,86.293 L98.9591837,86.293 Z M31.405102,46.643 C30.8071429,46.643 28.2765306,46.257 26.7918367,39.988 C25.6357143,35.116 26.844898,34.344 27.7346939,34.344 C28.144898,34.344 28.4867347,34.509 28.4867347,34.509 C24.0785714,11.924 42.0663265,5.778 42.0663265,5.778 C44.5418367,5.048 46.6193878,4.786 48.3377551,4.786 C48.9112245,4.786 49.444898,4.813 49.9367347,4.869 C50.4357143,4.813 50.9704082,4.786 51.5459184,4.786 C53.2622449,4.786 55.3397959,5.048 57.8173469,5.778 C57.8173469,5.778 75.8020408,11.924 71.3938776,34.509 C71.3938776,34.509 71.7387755,34.344 72.1489796,34.344 C73.0387755,34.344 74.2479592,35.115 73.0877551,39.988 C71.605102,46.258 69.0693878,46.643 68.472449,46.643 C68.3918367,46.643 68.3459184,46.636 68.3459184,46.636 C68.3459184,46.636 68.0265306,52.514 62.5071429,58.852 C62.5071429,58.901 62.5,58.956 62.5,59.004 C58.2040816,63.287 53.8234694,65.363 49.4295918,65.201 C43.9663265,64.978 39.65,61.326 37.505102,59.113 C37.5010204,59.08 37.4979592,59.031 37.4979592,58.998 C31.8653061,52.603 31.5316327,46.636 31.5316327,46.636 C31.5316327,46.636 31.4887755,46.643 31.405102,46.643 L31.405102,46.643 Z M50,95.215 C26.8693878,95.215 3.74183673,92.803 5.60612245,87.986 C9.33571429,78.355 15.2683673,76.529 20.0142857,75.699 C24.7591837,74.869 36.2826531,72.043 37.2959184,69.386 C37.605102,68.587 37.7173469,67.099 37.7387755,65.425 C40.6428571,67.56 44.527551,69.579 49.1989796,69.779 C49.455102,69.793 49.7122449,69.8 49.9683673,69.8 C54.1877551,69.8 58.2969388,68.267 62.2581633,65.304 C62.2765306,67.027 62.3887755,68.568 62.705102,69.386 C63.7173469,72.042 75.2408163,74.868 79.9877551,75.699 C84.7326531,76.529 90.6673469,78.355 94.3928571,87.986 C96.2581633,92.803 73.1316327,95.215 50,95.215 L50,95.215 Z" id="Shape" sketch:type="MSShapeGroup"></path>
            </g>
        </g>
        <g id="noun_17233" sketch:type="MSLayerGroup" transform="translate(-5992.000000, -3805.000000)"></g>
    </g>
</svg>